<svg width="36" height="36" viewBox="0 0 36 36" fill="none" xmlns="http://www.w3.org/2000/svg">
<rect width="36" height="36" rx="18" fill="#E2E8F0"/>
<path d="M9.875 10.5C8.83984 10.5 8 11.3398 8 12.375C8 12.9648 8.27734 13.5195 8.75 13.875L17.25 20.25C17.6953 20.582 18.3047 20.582 18.75 20.25L27.25 13.875C27.7227 13.5195 28 12.9648 28 12.375C28 11.3398 27.1602 10.5 26.125 10.5H9.875ZM8 14.875V23C8 24.3789 9.12109 25.5 10.5 25.5H25.5C26.8789 25.5 28 24.3789 28 23V14.875L19.5 21.25C18.6094 21.918 17.3906 21.918 16.5 21.25L8 14.875Z" fill="#334155"/>
</svg>
