<svg width="36" height="36" viewBox="0 0 36 36" fill="none" xmlns="http://www.w3.org/2000/svg">
<rect width="36" height="36" rx="18" fill="#E2E8F0"/>
<g clip-path="url(#clip0_482_6253)">
<path d="M12.422 20.4819C11.0952 19.2449 10.1676 17.7073 9.69764 16.6707C9.52044 16.2798 9.34875 16.0488 8.88121 16.0488C8.41368 16.0488 8.03467 16.4278 8.03467 16.8953C8.03467 17.0335 8.06024 17.1026 8.09361 17.2063C8.60499 18.4398 9.67852 20.1951 11.2956 21.6947C12.923 23.2081 15.1586 24.4797 17.9505 24.4797C20.7423 24.4797 22.9779 23.2081 24.6054 21.6947C26.2224 20.1951 27.2872 18.4571 27.802 17.2236L27.8025 17.2222C27.8382 17.1191 27.868 17.0329 27.868 16.8953C27.868 16.4278 27.489 16.0488 27.0215 16.0488C26.5539 16.0488 26.3636 16.377 26.1835 16.7744C25.7136 17.811 24.8058 19.2449 23.4755 20.4819C22.0554 21.7984 20.2033 22.8211 17.9505 22.8211C15.6976 22.8211 13.8456 21.7984 12.422 20.4819Z" fill="#334155"/>
<path d="M17.1566 24.4106C17.1566 23.9716 17.5124 23.6158 17.9513 23.6158C18.3902 23.6158 18.7461 23.9716 18.7461 24.4106V25.2053C18.7461 25.6442 18.3902 26 17.9513 26C17.5124 26 17.1566 25.6442 17.1566 25.2053V24.4106Z" fill="#334155"/>
<path d="M21.1129 23.8894C20.8935 23.5093 21.0237 23.0233 21.4038 22.8038C21.7839 22.5844 22.27 22.7146 22.4894 23.0947L22.8868 23.783C23.1062 24.1631 22.976 24.6491 22.5959 24.8686C22.2158 25.088 21.7297 24.9578 21.5103 24.5777L21.1129 23.8894Z" fill="#334155"/>
<path d="M13.4249 23.0947C13.6444 22.7146 14.1304 22.5844 14.5105 22.8038C14.8906 23.0233 15.0209 23.5093 14.8014 23.8894L14.404 24.5777C14.1846 24.9578 13.6985 25.088 13.3184 24.8686C12.9383 24.6491 12.8081 24.1631 13.0276 23.783L13.4249 23.0947Z" fill="#334155"/>
<path d="M10.3234 20.775C10.6596 20.4929 11.1609 20.5368 11.443 20.873C11.7251 21.2092 11.6813 21.7105 11.345 21.9926L10.7363 22.5035C10.4 22.7856 9.89876 22.7417 9.61663 22.4055C9.33451 22.0693 9.37837 21.568 9.71459 21.2859L10.3234 20.775Z" fill="#334155"/>
<path d="M24.5723 21.9926C24.2361 21.7105 24.1922 21.2092 24.4744 20.873C24.7565 20.5368 25.2578 20.4929 25.594 20.7751L26.2028 21.2859C26.539 21.568 26.5829 22.0693 26.3007 22.4055C26.0186 22.7417 25.5173 22.7856 25.1811 22.5035L24.5723 21.9926Z" fill="#334155"/>
</g>
<defs>
<clipPath id="clip0_482_6253">
<rect width="19.9024" height="17" fill="white" transform="translate(8 9)"/>
</clipPath>
</defs>
</svg>
