<svg width="22" height="22" viewBox="0 0 22 22" fill="none" xmlns="http://www.w3.org/2000/svg">
<path fill-rule="evenodd" clip-rule="evenodd" d="M6.89326 0.122987C8.01287 -0.379142 8.98283 0.75514 8.63257 1.73999C7.44411 5.08172 8.17431 8.87719 10.6412 11.3452C13.1206 13.8257 16.938 14.5548 20.2878 13.344C21.2625 12.9917 22.365 13.953 21.8832 15.0468C21.8689 15.0792 21.8545 15.1114 21.84 15.1437C20.9824 17.0471 19.6104 18.8372 17.8355 20.0373C15.9436 21.3166 13.7125 22 11.4292 22H11.4281C8.77282 21.9971 6.20121 21.0702 4.15409 19.3783C2.10697 17.6863 0.711808 15.3345 0.207896 12.726C-0.296015 10.1175 0.122727 7.41499 1.39231 5.0816C2.59587 2.86955 4.61972 1.15054 6.86034 0.137801L6.89326 0.122987Z" fill="#0EA5E9"/>
</svg>
