<svg width="25" height="22" viewBox="0 0 25 22" fill="none" xmlns="http://www.w3.org/2000/svg">
<path d="M5.88697 20.066C6.81217 21.2421 8.26562 22 9.9 22C11.5344 22 12.9878 21.2421 13.913 20.066C11.249 20.427 8.55096 20.427 5.88697 20.066Z" fill="#0EA5E9"/>
<path d="M17.324 7.7V8.47451C17.324 9.40401 17.5893 10.3127 18.0864 11.086L19.3046 12.9813C20.4173 14.7124 19.5679 17.0653 17.6326 17.6128C12.57 19.0447 7.23001 19.0447 2.1674 17.6128C0.232155 17.0653 -0.617297 14.7124 0.495397 12.9813L1.71358 11.086C2.21069 10.3127 2.47596 9.40401 2.47596 8.47451V7.7C2.47596 3.44741 5.79982 0 9.9 0C14.0001 0 17.324 3.44741 17.324 7.7Z" fill="#0EA5E9"/>
<circle cx="17.2327" cy="7.56136" r="7.33333" fill="#F97316"/>
<path d="M14.2937 5.63433C14.3337 5.01433 14.5703 4.531 15.0037 4.18433C15.4437 3.83766 16.0037 3.66433 16.6837 3.66433C17.1503 3.66433 17.5537 3.74766 17.8937 3.91433C18.2337 4.08099 18.4903 4.30766 18.6637 4.59433C18.837 4.88099 18.9237 5.20433 18.9237 5.56433C18.9237 5.97766 18.8137 6.331 18.5937 6.62433C18.3737 6.91766 18.1103 7.11433 17.8037 7.21433V7.25433C18.197 7.37433 18.5037 7.59433 18.7237 7.91433C18.9437 8.22766 19.0537 8.631 19.0537 9.12433C19.0537 9.51766 18.9637 9.86766 18.7837 10.1743C18.6037 10.481 18.337 10.7243 17.9837 10.9043C17.6303 11.0777 17.207 11.1643 16.7137 11.1643C15.9937 11.1643 15.4003 10.981 14.9337 10.6143C14.4737 10.241 14.227 9.70766 14.1937 9.01433H15.2937C15.3203 9.36766 15.457 9.65766 15.7037 9.88433C15.9503 10.1043 16.2837 10.2143 16.7037 10.2143C17.1103 10.2143 17.4237 10.1043 17.6437 9.88433C17.8637 9.65766 17.9737 9.36766 17.9737 9.01433C17.9737 8.54766 17.8237 8.21766 17.5237 8.02433C17.2303 7.82433 16.777 7.72433 16.1637 7.72433H15.9037V6.78433H16.1737C16.7137 6.77766 17.1237 6.68766 17.4037 6.51433C17.6903 6.341 17.8337 6.06766 17.8337 5.69433C17.8337 5.37433 17.7303 5.121 17.5237 4.93433C17.317 4.741 17.0237 4.64433 16.6437 4.64433C16.2703 4.64433 15.9803 4.741 15.7737 4.93433C15.567 5.121 15.4437 5.35433 15.4037 5.63433H14.2937Z" fill="white"/>
</svg>
