<svg width="36" height="36" viewBox="0 0 36 36" fill="none" xmlns="http://www.w3.org/2000/svg">
<rect width="36" height="36" rx="18" fill="#E2E8F0"/>
<path d="M22.125 21.75C25.9219 21.75 29 18.6719 29 14.875C29 11.0781 25.9219 8 22.125 8C18.3281 8 15.25 11.0781 15.25 14.875C15.25 15.6055 15.3633 16.3125 15.5742 16.9727L9.27344 23.2734C9.09766 23.4492 9 23.6875 9 23.9375V27.0625C9 27.582 9.41797 28 9.9375 28H13.0625C13.582 28 14 27.582 14 27.0625V25.5H15.5625C16.082 25.5 16.5 25.082 16.5 24.5625V23H18.0625C18.3125 23 18.5508 22.9023 18.7266 22.7266L20.0273 21.4258C20.6875 21.6367 21.3945 21.75 22.125 21.75ZM23.6875 11.75C24.1019 11.75 24.4993 11.9146 24.7924 12.2076C25.0854 12.5007 25.25 12.8981 25.25 13.3125C25.25 13.7269 25.0854 14.1243 24.7924 14.4174C24.4993 14.7104 24.1019 14.875 23.6875 14.875C23.2731 14.875 22.8757 14.7104 22.5826 14.4174C22.2896 14.1243 22.125 13.7269 22.125 13.3125C22.125 12.8981 22.2896 12.5007 22.5826 12.2076C22.8757 11.9146 23.2731 11.75 23.6875 11.75Z" fill="#F43F5E"/>
</svg>
