<svg width="36" height="36" viewBox="0 0 36 36" fill="none" xmlns="http://www.w3.org/2000/svg">
<rect width="36" height="36" rx="18" fill="#E2E8F0"/>
<g clip-path="url(#clip0_482_357)">
<path d="M17.9504 9C15.1585 9 12.9229 10.2715 11.2955 11.785C9.6784 13.2846 8.5969 15.0813 8.08552 16.3148C7.97149 16.5878 7.97149 16.8919 8.08552 17.1648C8.5969 18.3984 9.6784 20.1951 11.2955 21.6947C12.9229 23.2081 15.1585 24.4797 17.9504 24.4797C20.7422 24.4797 22.9778 23.2081 24.6052 21.6947C26.2223 20.1917 27.3038 18.3984 27.8186 17.1648C27.9327 16.8919 27.9327 16.5878 27.8186 16.3148C27.3038 15.0813 26.2223 13.2846 24.6052 11.785C22.9778 10.2715 20.7422 9 17.9504 9ZM12.9747 16.7398C12.9747 15.4202 13.499 14.1547 14.4321 13.2215C15.3652 12.2884 16.6307 11.7642 17.9504 11.7642C19.27 11.7642 20.5355 12.2884 21.4686 13.2215C22.4018 14.1547 22.926 15.4202 22.926 16.7398C22.926 18.0595 22.4018 19.325 21.4686 20.2581C20.5355 21.1912 19.27 21.7154 17.9504 21.7154C16.6307 21.7154 15.3652 21.1912 14.4321 20.2581C13.499 19.325 12.9747 18.0595 12.9747 16.7398ZM17.9504 14.5285C17.9504 15.7482 16.9587 16.7398 15.739 16.7398C15.4936 16.7398 15.2587 16.6984 15.0376 16.6258C14.8475 16.5636 14.6264 16.6811 14.6333 16.8815C14.6436 17.1199 14.6782 17.3583 14.7439 17.5967C15.2172 19.3659 17.0382 20.4163 18.8073 19.9429C20.5764 19.4695 21.6268 17.6486 21.1534 15.8795C20.7699 14.4455 19.5018 13.4815 18.092 13.4228C17.8916 13.4159 17.7741 13.6335 17.8363 13.827C17.9089 14.0482 17.9504 14.2831 17.9504 14.5285Z" fill="#F97316"/>
</g>
<defs>
<clipPath id="clip0_482_357">
<rect width="19.9024" height="17" fill="white" transform="translate(8 9)"/>
</clipPath>
</defs>
</svg>
