<svg width="299" height="154" viewBox="0 0 299 154" fill="none" xmlns="http://www.w3.org/2000/svg">
<path fill-rule="evenodd" clip-rule="evenodd" d="M19.1374 0H80.8642C91.3877 0 100 8.61159 100 19.1373V73.2293L99.775 73.2253C93.9381 73.2253 89.2069 77.956 89.2069 83.7925C89.2069 88.0354 91.7069 91.6929 95.3154 93.3739C91.7983 97.4269 86.6173 100 80.8642 100H19.1374C8.61161 100 0 91.3897 0 80.864V19.1373C0.000445874 8.61159 8.61161 0 19.1374 0ZM9.30182 89.5599H73.2312V83.6052H29.3902L74.0624 10.2163H13.7971V16.1709H54.1358L9.30182 89.5599ZM73.1973 22.6923C73.1973 24.5364 73.8653 26.1152 75.181 27.4301C76.5187 28.7459 78.1367 29.416 80.021 29.416C81.8852 29.416 83.4641 28.7459 84.7598 27.4301C86.0354 26.1152 86.6837 24.5364 86.6837 22.6923C86.6837 20.7879 86.0354 19.1694 84.7196 17.8715C83.4244 16.5762 81.8455 15.9284 80.021 15.9284C78.1367 15.9284 76.5187 16.5958 75.181 17.9138C73.8657 19.2292 73.1973 20.8276 73.1973 22.6923ZM74.1689 37.5555V89.5599H85.713V37.5555H74.1689Z" fill="#1BABE2"/>
<path d="M100.367 91.9593C104.888 91.9593 108.553 88.2946 108.553 83.774C108.553 79.2533 104.888 75.5886 100.367 75.5886C95.8468 75.5886 92.1821 79.2533 92.1821 83.774C92.1821 88.2946 95.8468 91.9593 100.367 91.9593Z" fill="#1BABE2"/>
<path d="M181.813 67.0201C178.728 73.7042 174.427 78.8362 168.91 82.4148C163.392 85.9934 156.975 87.7836 149.659 87.7836C138.782 87.7836 129.745 83.8889 122.547 76.0963C115.348 68.3056 111.75 58.339 111.75 46.197C111.75 34.3715 115.437 24.5133 122.814 16.6231C130.19 8.73293 139.336 4.78784 150.252 4.78784C156.897 4.78784 162.66 6.15221 167.545 8.88096C172.429 11.6101 176.474 15.7033 179.678 21.1612L174.932 24.4834C172.478 19.6586 169.444 16.0399 165.825 13.6268C162.206 11.2151 158.024 10.0081 153.278 10.0081C145.328 10.0081 139.029 13.2915 134.383 19.8561C129.735 26.4216 127.412 35.3801 127.412 46.7307C127.412 57.6862 129.626 66.1895 134.056 72.24C138.485 78.2914 144.695 81.3171 152.684 81.3171C158.024 81.3171 162.759 79.8439 166.893 76.8971C171.024 73.9517 174.397 69.6298 177.008 63.9347L181.813 67.0201Z" fill="#1BABE2"/>
<path d="M185.719 69.8085L181.091 85.8265H175.989L188.744 40.2649C189.456 37.6548 190.602 35.6671 192.185 34.3032C193.766 32.9384 195.704 32.2562 197.999 32.2562C200.411 32.2562 202.508 33.0182 204.288 34.5404C206.067 36.0635 207.373 38.2095 208.203 40.977L221.551 85.8265H209.746L205 69.8085H185.719ZM186.905 65.2998H203.813L197.643 43.2304C197.248 42.0052 196.872 41.2044 196.516 40.8281C196.16 40.4527 195.705 40.2645 195.151 40.2645C194.756 40.2645 194.41 40.4723 194.113 40.8878C193.817 41.3029 193.49 42.1037 193.134 43.2902L186.905 65.2998Z" fill="#1BABE2"/>
<path d="M233.108 85.825H221.54V33.7969H242.423C248.909 33.7969 253.832 35.0235 257.195 37.4754C260.556 39.9281 262.237 43.4875 262.237 48.1536C262.237 51.5556 261.229 54.3441 259.211 56.5186C257.194 58.6945 254.406 59.9991 250.847 60.4343L264.314 85.8254H250.491L238.092 59.8413C242.283 59.7624 245.359 58.892 247.316 57.2311C249.274 55.5698 250.253 52.9597 250.253 49.4003C250.253 45.5247 249.293 42.6667 247.376 40.8279C245.457 38.9887 242.481 38.0693 238.447 38.0693H233.108V85.825H233.108Z" fill="#1BABE2"/>
<path d="M263.589 43.1705C263.589 39.2946 264.212 36.7633 265.458 35.5769C266.704 34.3904 269.323 33.7969 273.318 33.7969H298.117V38.3056H280.378C278.281 38.3056 276.888 38.6021 276.196 39.1956C275.503 39.789 275.158 40.877 275.158 42.4585V55.5694H293.964V60.6715H275.158V77.2232C275.158 78.8052 275.513 79.8837 276.226 80.4562C276.937 81.0301 278.599 81.3168 281.209 81.3168H298.71V85.8254H271.48C268.552 85.8254 266.505 85.2128 265.339 83.9862C264.172 82.7609 263.589 80.2489 263.589 76.4518V43.1705Z" fill="#1BABE2"/>
<path d="M56.7715 125.768C56.7715 127.069 56.4728 128.264 55.8755 129.352C55.2781 130.419 54.3608 131.283 53.1235 131.944C51.8861 132.605 50.3501 132.936 48.5155 132.936H45.1235V141H39.6515V118.536H48.5155C50.3075 118.536 51.8221 118.845 53.0595 119.464C54.2968 120.083 55.2248 120.936 55.8435 122.024C56.4621 123.112 56.7715 124.36 56.7715 125.768ZM48.0995 128.584C49.1448 128.584 49.9235 128.339 50.4355 127.848C50.9475 127.357 51.2035 126.664 51.2035 125.768C51.2035 124.872 50.9475 124.179 50.4355 123.688C49.9235 123.197 49.1448 122.952 48.0995 122.952H45.1235V128.584H48.0995ZM58.5322 132.04C58.5322 130.205 58.8736 128.595 59.5562 127.208C60.2602 125.821 61.2096 124.755 62.4042 124.008C63.5989 123.261 64.9322 122.888 66.4042 122.888C67.6629 122.888 68.7616 123.144 69.7002 123.656C70.6602 124.168 71.3962 124.84 71.9082 125.672V123.144H77.3802V141H71.9082V138.472C71.3749 139.304 70.6282 139.976 69.6682 140.488C68.7296 141 67.6309 141.256 66.3722 141.256C64.9216 141.256 63.5989 140.883 62.4042 140.136C61.2096 139.368 60.2602 138.291 59.5562 136.904C58.8736 135.496 58.5322 133.875 58.5322 132.04ZM71.9082 132.072C71.9082 130.707 71.5242 129.629 70.7562 128.84C70.0096 128.051 69.0922 127.656 68.0042 127.656C66.9162 127.656 65.9882 128.051 65.2202 128.84C64.4736 129.608 64.1002 130.675 64.1002 132.04C64.1002 133.405 64.4736 134.493 65.2202 135.304C65.9882 136.093 66.9162 136.488 68.0042 136.488C69.0922 136.488 70.0096 136.093 70.7562 135.304C71.5242 134.515 71.9082 133.437 71.9082 132.072ZM91.291 136.36V141H88.507C86.523 141 84.9763 140.52 83.867 139.56C82.7576 138.579 82.203 136.989 82.203 134.792V127.688H80.027V123.144H82.203V118.792H87.675V123.144H91.259V127.688H87.675V134.856C87.675 135.389 87.803 135.773 88.059 136.008C88.315 136.243 88.7416 136.36 89.339 136.36H91.291ZM97.091 121.288C96.131 121.288 95.3416 121.011 94.723 120.456C94.1256 119.88 93.827 119.176 93.827 118.344C93.827 117.491 94.1256 116.787 94.723 116.232C95.3416 115.656 96.131 115.368 97.091 115.368C98.0296 115.368 98.7976 115.656 99.395 116.232C100.014 116.787 100.323 117.491 100.323 118.344C100.323 119.176 100.014 119.88 99.395 120.456C98.7976 121.011 98.0296 121.288 97.091 121.288ZM99.811 123.144V141H94.339V123.144H99.811ZM120.608 131.784C120.608 132.296 120.576 132.829 120.512 133.384H108.128C108.214 134.493 108.566 135.347 109.184 135.944C109.824 136.52 110.603 136.808 111.52 136.808C112.886 136.808 113.835 136.232 114.368 135.08H120.192C119.894 136.253 119.35 137.309 118.56 138.248C117.792 139.187 116.822 139.923 115.648 140.456C114.475 140.989 113.163 141.256 111.712 141.256C109.963 141.256 108.406 140.883 107.04 140.136C105.675 139.389 104.608 138.323 103.84 136.936C103.072 135.549 102.688 133.928 102.688 132.072C102.688 130.216 103.062 128.595 103.808 127.208C104.576 125.821 105.643 124.755 107.008 124.008C108.374 123.261 109.942 122.888 111.712 122.888C113.44 122.888 114.976 123.251 116.32 123.976C117.664 124.701 118.71 125.736 119.456 127.08C120.224 128.424 120.608 129.992 120.608 131.784ZM115.008 130.344C115.008 129.405 114.688 128.659 114.048 128.104C113.408 127.549 112.608 127.272 111.648 127.272C110.731 127.272 109.952 127.539 109.312 128.072C108.694 128.605 108.31 129.363 108.16 130.344H115.008ZM134.375 122.952C136.466 122.952 138.13 123.635 139.367 125C140.626 126.344 141.255 128.2 141.255 130.568V141H135.815V131.304C135.815 130.109 135.506 129.181 134.887 128.52C134.269 127.859 133.437 127.528 132.391 127.528C131.346 127.528 130.514 127.859 129.895 128.52C129.277 129.181 128.967 130.109 128.967 131.304V141H123.495V123.144H128.967V125.512C129.522 124.723 130.269 124.104 131.207 123.656C132.146 123.187 133.202 122.952 134.375 122.952ZM155.01 136.36V141H152.226C150.242 141 148.695 140.52 147.586 139.56C146.476 138.579 145.922 136.989 145.922 134.792V127.688H143.746V123.144H145.922V118.792H151.394V123.144H154.978V127.688H151.394V134.856C151.394 135.389 151.522 135.773 151.778 136.008C152.034 136.243 152.46 136.36 153.058 136.36H155.01ZM181.959 125.768C181.959 127.069 181.66 128.264 181.063 129.352C180.466 130.419 179.548 131.283 178.311 131.944C177.074 132.605 175.538 132.936 173.703 132.936H170.311V141H164.839V118.536H173.703C175.495 118.536 177.01 118.845 178.247 119.464C179.484 120.083 180.412 120.936 181.031 122.024C181.65 123.112 181.959 124.36 181.959 125.768ZM173.287 128.584C174.332 128.584 175.111 128.339 175.623 127.848C176.135 127.357 176.391 126.664 176.391 125.768C176.391 124.872 176.135 124.179 175.623 123.688C175.111 123.197 174.332 122.952 173.287 122.952H170.311V128.584H173.287ZM192.936 141.256C191.186 141.256 189.608 140.883 188.2 140.136C186.813 139.389 185.714 138.323 184.904 136.936C184.114 135.549 183.72 133.928 183.72 132.072C183.72 130.237 184.125 128.627 184.936 127.24C185.746 125.832 186.856 124.755 188.264 124.008C189.672 123.261 191.25 122.888 193 122.888C194.749 122.888 196.328 123.261 197.736 124.008C199.144 124.755 200.253 125.832 201.064 127.24C201.874 128.627 202.28 130.237 202.28 132.072C202.28 133.907 201.864 135.528 201.032 136.936C200.221 138.323 199.101 139.389 197.672 140.136C196.264 140.883 194.685 141.256 192.936 141.256ZM192.936 136.52C193.981 136.52 194.866 136.136 195.592 135.368C196.338 134.6 196.712 133.501 196.712 132.072C196.712 130.643 196.349 129.544 195.624 128.776C194.92 128.008 194.045 127.624 193 127.624C191.933 127.624 191.048 128.008 190.344 128.776C189.64 129.523 189.288 130.621 189.288 132.072C189.288 133.501 189.629 134.6 190.312 135.368C191.016 136.136 191.89 136.52 192.936 136.52ZM210.655 126.12C211.295 125.139 212.095 124.371 213.055 123.816C214.015 123.24 215.081 122.952 216.255 122.952V128.744H214.751C213.385 128.744 212.361 129.043 211.679 129.64C210.996 130.216 210.655 131.24 210.655 132.712V141H205.183V123.144H210.655V126.12ZM228.822 136.36V141H226.038C224.054 141 222.508 140.52 221.398 139.56C220.289 138.579 219.734 136.989 219.734 134.792V127.688H217.558V123.144H219.734V118.792H225.206V123.144H228.79V127.688H225.206V134.856C225.206 135.389 225.334 135.773 225.59 136.008C225.846 136.243 226.273 136.36 226.87 136.36H228.822ZM230.782 132.04C230.782 130.205 231.124 128.595 231.806 127.208C232.51 125.821 233.46 124.755 234.654 124.008C235.849 123.261 237.182 122.888 238.654 122.888C239.913 122.888 241.012 123.144 241.95 123.656C242.91 124.168 243.646 124.84 244.158 125.672V123.144H249.63V141H244.158V138.472C243.625 139.304 242.878 139.976 241.918 140.488C240.98 141 239.881 141.256 238.622 141.256C237.172 141.256 235.849 140.883 234.654 140.136C233.46 139.368 232.51 138.291 231.806 136.904C231.124 135.496 230.782 133.875 230.782 132.04ZM244.158 132.072C244.158 130.707 243.774 129.629 243.006 128.84C242.26 128.051 241.342 127.656 240.254 127.656C239.166 127.656 238.238 128.051 237.47 128.84C236.724 129.608 236.35 130.675 236.35 132.04C236.35 133.405 236.724 134.493 237.47 135.304C238.238 136.093 239.166 136.488 240.254 136.488C241.342 136.488 242.26 136.093 243.006 135.304C243.774 134.515 244.158 133.437 244.158 132.072ZM259.061 117.32V141H253.589V117.32H259.061Z" fill="#1BABE2"/>
</svg>
